<svg xmlns="http://www.w3.org/2000/svg" xmlns:xlink="http://www.w3.org/1999/xlink" width="100" zoomAndPan="magnify" viewBox="0 0 75 74.999997" height="100" preserveAspectRatio="xMidYMid meet" version="1.0"><defs><clipPath id="be619cce68"><path d="M 20.199219 50.214844 L 40.6875 50.214844 L 40.6875 61.179688 L 20.199219 61.179688 Z M 20.199219 50.214844 " clip-rule="nonzero"/></clipPath><clipPath id="6297121325"><path d="M 48.566406 26.128906 L 54.6875 26.128906 L 54.6875 31.996094 L 48.566406 31.996094 Z M 48.566406 26.128906 " clip-rule="nonzero"/></clipPath><clipPath id="39aae7f747"><path d="M 48.566406 19.890625 L 54.6875 19.890625 L 54.6875 25.761719 L 48.566406 25.761719 Z M 48.566406 19.890625 " clip-rule="nonzero"/></clipPath><clipPath id="cd84ad170d"><path d="M 25 1.183594 L 52 1.183594 L 52 23 L 25 23 Z M 25 1.183594 " clip-rule="nonzero"/></clipPath><clipPath id="5411c53d67"><path d="M 48.566406 13.535156 L 54.6875 13.535156 L 54.6875 19.527344 L 48.566406 19.527344 Z M 48.566406 13.535156 " clip-rule="nonzero"/></clipPath><clipPath id="08261aa614"><path d="M 48.566406 32.363281 L 54.6875 32.363281 L 54.6875 38.234375 L 48.566406 38.234375 Z M 48.566406 32.363281 " clip-rule="nonzero"/></clipPath><clipPath id="add7cd1932"><path d="M 22.5 70 L 26 70 L 26 74.363281 L 22.5 74.363281 Z M 22.5 70 " clip-rule="nonzero"/></clipPath><clipPath id="0934883c30"><path d="M 25 70 L 30 70 L 30 74.363281 L 25 74.363281 Z M 25 70 " clip-rule="nonzero"/></clipPath><clipPath id="b7508e21e0"><path d="M 30 70 L 35 70 L 35 74.363281 L 30 74.363281 Z M 30 70 " clip-rule="nonzero"/></clipPath><clipPath id="f117dfb2c4"><path d="M 34 70 L 39 70 L 39 74.363281 L 34 74.363281 Z M 34 70 " clip-rule="nonzero"/></clipPath><clipPath id="b0f3e60cc7"><path d="M 40 70 L 45 70 L 45 74.363281 L 40 74.363281 Z M 40 70 " clip-rule="nonzero"/></clipPath><clipPath id="944ceb461f"><path d="M 45 70 L 48 70 L 48 74.363281 L 45 74.363281 Z M 45 70 " clip-rule="nonzero"/></clipPath><clipPath id="8aa4f842e8"><path d="M 49 68.753906 L 52.5 68.753906 L 52.5 74.363281 L 49 74.363281 Z M 49 68.753906 " clip-rule="nonzero"/></clipPath><clipPath id="1af2238806"><path d="M 42 60.863281 L 48 60.863281 L 48 67 L 42 67 Z M 42 60.863281 " clip-rule="nonzero"/></clipPath></defs><rect x="-7.5" width="90" fill="#ffffff" y="-7.5" height="89.999996" fill-opacity="1"/><rect x="-7.5" width="90" fill="#ffffff" y="-7.5" height="89.999996" fill-opacity="1"/><g clip-path="url(#be619cce68)"><path fill="#000000" d="M 39.742188 55.863281 L 39.449219 55.761719 L 23.089844 50.324219 C 22.421875 50.101562 21.695312 50.464844 21.464844 51.136719 L 20.199219 54.820312 L 39.3125 61.179688 L 40.5625 57.527344 C 40.675781 57.195312 40.652344 56.839844 40.5 56.523438 C 40.347656 56.214844 40.074219 55.972656 39.742188 55.863281 " fill-opacity="1" fill-rule="nonzero"/></g><g clip-path="url(#6297121325)"><path fill="#000000" d="M 52.480469 26.15625 C 51.996094 26.15625 51.511719 26.3125 51.105469 26.640625 L 49.417969 27.996094 C 48.46875 28.761719 48.3125 30.164062 49.070312 31.121094 C 49.828125 32.082031 51.21875 32.238281 52.167969 31.476562 L 53.855469 30.117188 C 54.808594 29.355469 54.964844 27.953125 54.207031 26.992188 C 53.773438 26.441406 53.128906 26.15625 52.480469 26.15625 " fill-opacity="1" fill-rule="nonzero"/></g><g clip-path="url(#39aae7f747)"><path fill="#000000" d="M 52.480469 19.902344 C 51.996094 19.902344 51.511719 20.0625 51.105469 20.386719 L 49.417969 21.742188 C 48.46875 22.507812 48.3125 23.910156 49.070312 24.871094 C 49.828125 25.828125 51.214844 25.988281 52.167969 25.222656 L 53.855469 23.867188 C 54.808594 23.101562 54.964844 21.699219 54.207031 20.738281 C 53.773438 20.1875 53.128906 19.902344 52.480469 19.902344 " fill-opacity="1" fill-rule="nonzero"/></g><path fill="#000000" d="M 46.765625 23.777344 L 46.765625 21.003906 L 45.796875 21.003906 L 45.796875 23.289062 L 43.53125 23.289062 L 43.53125 24.265625 L 46.28125 24.265625 C 46.546875 24.265625 46.765625 24.046875 46.765625 23.777344 " fill-opacity="1" fill-rule="nonzero"/><path fill="#000000" d="M 29.910156 23.777344 C 29.910156 24.046875 30.128906 24.265625 30.394531 24.265625 L 33.144531 24.265625 L 33.144531 23.289062 L 30.878906 23.289062 L 30.878906 21.003906 L 29.910156 21.003906 L 29.910156 23.777344 " fill-opacity="1" fill-rule="nonzero"/><path fill="#000000" d="M 46.765625 7.753906 C 46.765625 7.484375 46.546875 7.265625 46.28125 7.265625 L 43.53125 7.265625 L 43.53125 8.242188 L 45.796875 8.242188 L 45.796875 10.527344 L 46.765625 10.527344 L 46.765625 7.753906 " fill-opacity="1" fill-rule="nonzero"/><path fill="#000000" d="M 29.910156 7.753906 L 29.910156 10.527344 L 30.878906 10.527344 L 30.878906 8.242188 L 33.144531 8.242188 L 33.144531 7.265625 L 30.394531 7.265625 C 30.128906 7.265625 29.910156 7.484375 29.910156 7.753906 " fill-opacity="1" fill-rule="nonzero"/><path fill="#000000" d="M 40.871094 10.136719 L 43.765625 10.136719 L 43.765625 13.054688 L 40.871094 13.054688 Z M 39.90625 14.03125 L 44.734375 14.03125 L 44.734375 9.160156 L 39.90625 9.160156 L 39.90625 14.03125 " fill-opacity="1" fill-rule="nonzero"/><path fill="#000000" d="M 32.894531 10.125 L 35.816406 10.125 L 35.816406 13.070312 L 32.894531 13.070312 Z M 31.957031 14.019531 L 36.757812 14.019531 L 36.757812 9.175781 L 31.957031 9.175781 L 31.957031 14.019531 " fill-opacity="1" fill-rule="nonzero"/><path fill="#000000" d="M 35.816406 21.40625 L 32.894531 21.40625 L 32.894531 18.457031 L 35.816406 18.457031 Z M 36.757812 17.511719 L 31.957031 17.511719 L 31.957031 22.351562 L 36.757812 22.351562 L 36.757812 17.511719 " fill-opacity="1" fill-rule="nonzero"/><path fill="#000000" d="M 38.808594 9.128906 L 37.867188 9.128906 L 37.867188 11.113281 L 38.808594 11.113281 L 38.808594 9.128906 " fill-opacity="1" fill-rule="nonzero"/><path fill="#000000" d="M 37.867188 22.402344 L 38.808594 22.402344 L 38.808594 20.46875 L 37.867188 20.46875 L 37.867188 22.402344 " fill-opacity="1" fill-rule="nonzero"/><path fill="#000000" d="M 31.761719 16.242188 L 33.824219 16.242188 L 33.824219 15.292969 L 31.761719 15.292969 L 31.761719 16.242188 " fill-opacity="1" fill-rule="nonzero"/><path fill="#000000" d="M 37.867188 15.292969 L 34.890625 15.292969 L 34.890625 16.242188 L 37.867188 16.242188 L 37.867188 19.394531 L 38.808594 19.394531 L 38.808594 16.242188 L 41.785156 16.242188 L 41.785156 15.292969 L 38.808594 15.292969 L 38.808594 12.191406 L 37.867188 12.191406 L 37.867188 15.292969 " fill-opacity="1" fill-rule="nonzero"/><path fill="#000000" d="M 44.917969 15.292969 L 42.851562 15.292969 L 42.851562 16.242188 L 44.917969 16.242188 L 44.917969 15.292969 " fill-opacity="1" fill-rule="nonzero"/><path fill="#000000" d="M 42.292969 17.476562 L 39.902344 17.476562 L 39.902344 19.890625 L 41.074219 19.890625 L 41.074219 18.660156 L 42.292969 18.660156 L 42.292969 17.476562 " fill-opacity="1" fill-rule="nonzero"/><path fill="#000000" d="M 44.734375 18.660156 L 44.734375 17.476562 L 43.5625 17.476562 L 43.5625 18.660156 L 44.734375 18.660156 " fill-opacity="1" fill-rule="nonzero"/><path fill="#000000" d="M 42.34375 19.890625 L 43.511719 19.890625 L 43.511719 18.710938 L 42.34375 18.710938 L 42.34375 19.890625 " fill-opacity="1" fill-rule="nonzero"/><path fill="#000000" d="M 42.292969 21.121094 L 42.292969 19.941406 L 41.121094 19.941406 L 41.121094 21.121094 L 42.292969 21.121094 " fill-opacity="1" fill-rule="nonzero"/><path fill="#000000" d="M 39.902344 22.351562 L 41.074219 22.351562 L 41.074219 21.171875 L 39.902344 21.171875 L 39.902344 22.351562 " fill-opacity="1" fill-rule="nonzero"/><path fill="#000000" d="M 44.734375 19.941406 L 43.5625 19.941406 L 43.5625 21.171875 L 42.34375 21.171875 L 42.34375 22.351562 L 44.734375 22.351562 L 44.734375 19.941406 " fill-opacity="1" fill-rule="nonzero"/><path fill="#000000" d="M 37.785156 36.179688 C 37.789062 36.179688 37.792969 36.179688 37.796875 36.183594 C 37.984375 36.207031 38.167969 36.21875 38.359375 36.21875 C 38.535156 36.21875 38.707031 36.207031 38.875 36.1875 C 40.972656 35.929688 42.550781 34.125 42.550781 31.992188 C 42.550781 31.90625 42.550781 31.824219 42.542969 31.742188 C 42.527344 31.46875 42.292969 31.253906 42.019531 31.273438 C 41.746094 31.289062 41.539062 31.527344 41.554688 31.800781 C 41.558594 31.863281 41.558594 31.929688 41.558594 31.992188 C 41.558594 33.621094 40.351562 34.996094 38.75 35.195312 C 38.476562 35.230469 38.195312 35.226562 37.921875 35.1875 C 37.917969 35.1875 37.914062 35.1875 37.90625 35.1875 C 36.339844 34.960938 35.160156 33.589844 35.160156 31.992188 C 35.160156 30.210938 36.59375 28.761719 38.359375 28.761719 C 38.652344 28.761719 38.945312 28.804688 39.226562 28.882812 C 39.488281 28.960938 39.761719 28.804688 39.839844 28.539062 C 39.914062 28.273438 39.761719 27.996094 39.496094 27.921875 C 39.125 27.816406 38.746094 27.761719 38.359375 27.761719 C 36.046875 27.761719 34.164062 29.660156 34.164062 31.992188 C 34.164062 34.09375 35.722656 35.894531 37.785156 36.179688 " fill-opacity="1" fill-rule="nonzero"/><path fill="#000000" d="M 42.464844 27.851562 C 42.25 27.679688 41.9375 27.71875 41.769531 27.9375 L 38.324219 32.363281 L 37.355469 31.140625 C 37.183594 30.921875 36.871094 30.886719 36.65625 31.058594 C 36.441406 31.234375 36.40625 31.546875 36.578125 31.765625 L 37.9375 33.484375 C 38.035156 33.601562 38.175781 33.671875 38.328125 33.671875 C 38.480469 33.671875 38.625 33.601562 38.71875 33.480469 L 42.550781 28.554688 C 42.71875 28.335938 42.679688 28.023438 42.464844 27.851562 " fill-opacity="1" fill-rule="nonzero"/><path fill="#000000" d="M 31.949219 43.414062 C 31.746094 39.945312 30.519531 37.339844 28.203125 36.125 C 27.226562 35.609375 26.660156 34.5625 26.765625 33.46875 L 27.320312 27.796875 C 27.535156 26.191406 26.6875 23.863281 25.238281 23.125 C 25.015625 23.011719 24.789062 22.941406 24.570312 22.910156 C 24.53125 22.902344 24.484375 22.898438 24.4375 22.898438 C 23.960938 22.898438 23.550781 23.261719 23.484375 23.746094 L 21.726562 37.25 C 21.71875 37.308594 21.039062 41.113281 22.039062 44.148438 C 22.378906 45.183594 22.761719 45.78125 23.09375 46.308594 C 23.652344 47.1875 24.097656 47.890625 24.003906 49.851562 L 39.269531 54.929688 C 39.660156 52.683594 40.988281 51.53125 42.386719 50.308594 C 43.222656 49.585938 44.085938 48.832031 44.824219 47.789062 C 45.621094 46.667969 46.152344 45.402344 46.457031 44.328125 L 31.933594 44.328125 L 31.949219 43.414062 " fill-opacity="1" fill-rule="nonzero"/><g clip-path="url(#cd84ad170d)"><path fill="#000000" d="M 26.265625 22.953125 L 26.265625 4.1875 C 26.265625 3.085938 27.15625 2.1875 28.25 2.1875 L 48.472656 2.1875 C 49.5625 2.1875 50.457031 3.085938 50.457031 4.1875 L 50.457031 13.71875 L 50.714844 13.515625 L 51.449219 12.9375 L 51.449219 4.1875 C 51.449219 2.53125 50.113281 1.183594 48.472656 1.183594 L 28.25 1.183594 C 26.609375 1.183594 25.273438 2.53125 25.273438 4.1875 L 25.273438 22.351562 C 25.371094 22.386719 25.46875 22.421875 25.566406 22.472656 C 25.816406 22.601562 26.050781 22.765625 26.265625 22.953125 " fill-opacity="1" fill-rule="nonzero"/></g><g clip-path="url(#5411c53d67)"><path fill="#000000" d="M 49.417969 15.492188 C 48.46875 16.257812 48.3125 17.660156 49.070312 18.617188 C 49.828125 19.578125 51.21875 19.734375 52.167969 18.96875 L 53.855469 17.613281 C 54.808594 16.847656 54.964844 15.445312 54.207031 14.488281 C 53.773438 13.9375 53.128906 13.652344 52.480469 13.652344 C 51.996094 13.652344 51.511719 13.808594 51.105469 14.132812 L 49.417969 15.492188 " fill-opacity="1" fill-rule="nonzero"/></g><path fill="#000000" d="M 50.457031 40.550781 C 50.457031 41.652344 49.5625 42.554688 48.472656 42.554688 L 32.785156 42.554688 C 32.777344 42.554688 32.769531 42.554688 32.765625 42.558594 L 32.820312 43.554688 L 48.472656 43.554688 C 50.113281 43.554688 51.449219 42.207031 51.449219 40.550781 L 51.449219 38.972656 L 50.457031 38.972656 L 50.457031 40.550781 " fill-opacity="1" fill-rule="nonzero"/><g clip-path="url(#08261aa614)"><path fill="#000000" d="M 52.730469 32.421875 C 52.644531 32.410156 52.5625 32.40625 52.476562 32.40625 C 51.980469 32.40625 51.5 32.574219 51.105469 32.890625 L 49.417969 34.25 C 48.46875 35.015625 48.3125 36.417969 49.070312 37.375 C 49.828125 38.335938 51.21875 38.492188 52.167969 37.726562 L 53.855469 36.371094 C 54.808594 35.605469 54.964844 34.203125 54.207031 33.246094 C 53.839844 32.78125 53.316406 32.488281 52.730469 32.421875 " fill-opacity="1" fill-rule="nonzero"/></g><g clip-path="url(#add7cd1932)"><path fill="#100f0d" d="M 23.238281 74.183594 C 23.011719 74.085938 22.832031 73.945312 22.703125 73.761719 C 22.570312 73.574219 22.503906 73.359375 22.5 73.105469 L 23.367188 73.105469 C 23.378906 73.277344 23.4375 73.410156 23.542969 73.507812 C 23.648438 73.605469 23.792969 73.652344 23.980469 73.652344 C 24.167969 73.652344 24.316406 73.609375 24.425781 73.515625 C 24.53125 73.425781 24.585938 73.304688 24.585938 73.152344 C 24.585938 73.03125 24.550781 72.933594 24.476562 72.855469 C 24.402344 72.777344 24.3125 72.714844 24.203125 72.667969 C 24.09375 72.625 23.941406 72.574219 23.75 72.519531 C 23.484375 72.441406 23.273438 72.363281 23.109375 72.285156 C 22.945312 72.210938 22.804688 72.09375 22.6875 71.941406 C 22.570312 71.785156 22.511719 71.578125 22.511719 71.320312 C 22.511719 71.078125 22.570312 70.863281 22.691406 70.683594 C 22.808594 70.503906 22.976562 70.367188 23.195312 70.269531 C 23.410156 70.171875 23.65625 70.125 23.933594 70.125 C 24.347656 70.125 24.6875 70.226562 24.949219 70.433594 C 25.207031 70.640625 25.351562 70.925781 25.378906 71.296875 L 24.488281 71.296875 C 24.480469 71.15625 24.421875 71.039062 24.3125 70.945312 C 24.203125 70.855469 24.054688 70.808594 23.875 70.808594 C 23.71875 70.808594 23.589844 70.847656 23.496094 70.929688 C 23.402344 71.011719 23.355469 71.132812 23.355469 71.289062 C 23.355469 71.398438 23.390625 71.492188 23.460938 71.5625 C 23.535156 71.636719 23.621094 71.695312 23.726562 71.738281 C 23.835938 71.785156 23.984375 71.835938 24.175781 71.894531 C 24.4375 71.972656 24.652344 72.050781 24.816406 72.132812 C 24.984375 72.210938 25.125 72.328125 25.246094 72.484375 C 25.363281 72.640625 25.425781 72.847656 25.425781 73.101562 C 25.425781 73.320312 25.367188 73.523438 25.257812 73.714844 C 25.144531 73.902344 24.980469 74.050781 24.765625 74.164062 C 24.550781 74.273438 24.292969 74.332031 23.996094 74.332031 C 23.714844 74.332031 23.460938 74.28125 23.238281 74.183594 " fill-opacity="1" fill-rule="nonzero"/></g><g clip-path="url(#0934883c30)"><path fill="#100f0d" d="M 26.195312 71.144531 C 26.375 70.828125 26.621094 70.578125 26.929688 70.398438 C 27.238281 70.21875 27.585938 70.132812 27.972656 70.132812 C 28.421875 70.132812 28.820312 70.25 29.15625 70.484375 C 29.496094 70.71875 29.734375 71.046875 29.867188 71.460938 L 28.9375 71.460938 C 28.84375 71.265625 28.714844 71.117188 28.546875 71.019531 C 28.378906 70.921875 28.1875 70.871094 27.96875 70.871094 C 27.730469 70.871094 27.523438 70.929688 27.339844 71.039062 C 27.15625 71.152344 27.015625 71.308594 26.914062 71.511719 C 26.808594 71.71875 26.757812 71.957031 26.757812 72.230469 C 26.757812 72.5 26.808594 72.738281 26.914062 72.945312 C 27.015625 73.152344 27.15625 73.308594 27.339844 73.421875 C 27.523438 73.535156 27.730469 73.589844 27.96875 73.589844 C 28.1875 73.589844 28.378906 73.539062 28.546875 73.441406 C 28.714844 73.339844 28.84375 73.191406 28.9375 72.996094 L 29.867188 72.996094 C 29.734375 73.414062 29.496094 73.742188 29.160156 73.976562 C 28.824219 74.207031 28.425781 74.324219 27.972656 74.324219 C 27.585938 74.324219 27.238281 74.234375 26.929688 74.058594 C 26.621094 73.878906 26.375 73.628906 26.195312 73.3125 C 26.015625 72.996094 25.925781 72.636719 25.925781 72.230469 C 25.925781 71.828125 26.015625 71.464844 26.195312 71.144531 " fill-opacity="1" fill-rule="nonzero"/></g><g clip-path="url(#b7508e21e0)"><path fill="#100f0d" d="M 32.816406 72.847656 L 32.230469 71.132812 L 31.648438 72.847656 Z M 33.035156 73.507812 L 31.429688 73.507812 L 31.164062 74.289062 L 30.3125 74.289062 L 31.765625 70.179688 L 32.707031 70.179688 L 34.15625 74.289062 L 33.300781 74.289062 L 33.035156 73.507812 " fill-opacity="1" fill-rule="nonzero"/></g><g clip-path="url(#f117dfb2c4)"><path fill="#100f0d" d="M 38.148438 74.289062 L 37.339844 74.289062 L 35.507812 71.472656 L 35.507812 74.289062 L 34.699219 74.289062 L 34.699219 70.179688 L 35.507812 70.179688 L 37.339844 73 L 37.339844 70.179688 L 38.148438 70.179688 L 38.148438 74.289062 " fill-opacity="1" fill-rule="nonzero"/></g><g clip-path="url(#b0f3e60cc7)"><path fill="#100f0d" d="M 44.71875 70.183594 L 44.71875 74.289062 L 43.910156 74.289062 L 43.910156 71.621094 L 42.832031 74.289062 L 42.21875 74.289062 L 41.132812 71.621094 L 41.132812 74.289062 L 40.324219 74.289062 L 40.324219 70.183594 L 41.242188 70.183594 L 42.523438 73.238281 L 43.808594 70.183594 L 44.71875 70.183594 " fill-opacity="1" fill-rule="nonzero"/></g><g clip-path="url(#944ceb461f)"><path fill="#100f0d" d="M 46.328125 70.847656 L 46.328125 71.878906 L 47.683594 71.878906 L 47.683594 72.53125 L 46.328125 72.53125 L 46.328125 73.617188 L 47.859375 73.617188 L 47.859375 74.289062 L 45.519531 74.289062 L 45.519531 70.179688 L 47.859375 70.179688 L 47.859375 70.847656 L 46.328125 70.847656 " fill-opacity="1" fill-rule="nonzero"/></g><g clip-path="url(#8aa4f842e8)"><path fill="#100f0d" d="M 52.238281 73.699219 L 49.265625 73.699219 L 49.265625 69.429688 L 52.238281 69.429688 Z M 52.011719 68.765625 L 49.492188 68.765625 C 49.222656 68.765625 49.003906 68.988281 49.003906 69.265625 L 49.003906 73.863281 C 49.003906 74.140625 49.222656 74.363281 49.492188 74.363281 L 52.011719 74.363281 C 52.285156 74.363281 52.5 74.140625 52.5 73.863281 L 52.5 69.265625 C 52.5 68.988281 52.285156 68.765625 52.011719 68.765625 " fill-opacity="1" fill-rule="nonzero"/></g><g clip-path="url(#1af2238806)"><path fill="#100f0d" d="M 42.648438 63.023438 L 45.359375 64.007812 L 47.03125 66.390625 L 47.691406 60.863281 L 42.648438 63.023438 " fill-opacity="1" fill-rule="nonzero"/></g><path fill="#100f0d" d="M 27.570312 67.871094 C 27.570312 67.871094 27.597656 67.785156 27.65625 67.632812 C 27.71875 67.476562 27.8125 67.25 27.945312 66.96875 C 28.078125 66.6875 28.253906 66.355469 28.488281 65.984375 C 28.605469 65.800781 28.738281 65.605469 28.886719 65.410156 C 29.035156 65.214844 29.203125 65.015625 29.394531 64.816406 C 29.585938 64.621094 29.800781 64.429688 30.042969 64.25 C 30.285156 64.074219 30.554688 63.910156 30.859375 63.785156 C 31.164062 63.660156 31.496094 63.570312 31.847656 63.53125 C 31.890625 63.527344 31.933594 63.523438 31.980469 63.519531 L 32.011719 63.515625 C 32.046875 63.515625 32.027344 63.515625 32.035156 63.515625 L 32.117188 63.515625 C 32.15625 63.515625 32.195312 63.515625 32.238281 63.511719 C 32.257812 63.511719 32.277344 63.511719 32.296875 63.511719 L 32.371094 63.515625 C 32.417969 63.519531 32.464844 63.523438 32.515625 63.527344 L 32.589844 63.535156 C 32.613281 63.535156 32.632812 63.542969 32.65625 63.542969 C 32.703125 63.550781 32.75 63.558594 32.792969 63.566406 L 32.863281 63.578125 C 32.886719 63.582031 32.910156 63.589844 32.933594 63.59375 C 33.300781 63.679688 33.65625 63.828125 33.980469 64.019531 C 34.308594 64.210938 34.609375 64.441406 34.886719 64.679688 C 35.445312 65.15625 35.933594 65.671875 36.433594 66.09375 C 36.679688 66.304688 36.933594 66.492188 37.183594 66.636719 C 37.433594 66.78125 37.6875 66.882812 37.933594 66.9375 C 37.996094 66.949219 38.058594 66.964844 38.121094 66.96875 C 38.183594 66.976562 38.246094 66.988281 38.308594 66.988281 C 38.371094 66.988281 38.433594 66.996094 38.496094 66.992188 L 38.589844 66.988281 L 38.636719 66.984375 C 38.632812 66.984375 38.660156 66.984375 38.625 66.984375 L 38.648438 66.984375 L 38.679688 66.980469 C 38.722656 66.976562 38.761719 66.972656 38.804688 66.96875 L 38.867188 66.964844 L 38.898438 66.960938 C 38.910156 66.960938 38.914062 66.960938 38.925781 66.957031 C 38.988281 66.949219 39.054688 66.9375 39.121094 66.929688 C 39.191406 66.917969 39.257812 66.902344 39.328125 66.890625 C 39.398438 66.875 39.46875 66.859375 39.535156 66.84375 C 39.808594 66.777344 40.074219 66.691406 40.328125 66.589844 C 40.390625 66.5625 40.453125 66.539062 40.515625 66.511719 C 40.578125 66.484375 40.640625 66.457031 40.699219 66.429688 C 40.761719 66.398438 40.820312 66.371094 40.882812 66.339844 C 40.941406 66.3125 41 66.277344 41.054688 66.25 C 41.289062 66.125 41.507812 65.988281 41.714844 65.851562 C 41.917969 65.707031 42.113281 65.5625 42.292969 65.417969 C 42.472656 65.269531 42.640625 65.121094 42.792969 64.976562 C 42.949219 64.832031 43.089844 64.6875 43.21875 64.550781 C 43.476562 64.273438 43.679688 64.015625 43.835938 63.804688 C 43.992188 63.589844 44.105469 63.417969 44.175781 63.300781 C 44.210938 63.246094 44.234375 63.199219 44.253906 63.167969 C 44.269531 63.140625 44.28125 63.125 44.28125 63.125 L 46.539062 64.6875 C 46.539062 64.6875 46.523438 64.710938 46.492188 64.75 C 46.460938 64.789062 46.417969 64.851562 46.355469 64.925781 C 46.234375 65.078125 46.054688 65.292969 45.8125 65.546875 C 45.570312 65.800781 45.269531 66.097656 44.902344 66.40625 C 44.71875 66.5625 44.515625 66.714844 44.300781 66.875 C 44.085938 67.035156 43.851562 67.191406 43.605469 67.347656 C 43.355469 67.503906 43.089844 67.65625 42.808594 67.800781 C 42.523438 67.945312 42.226562 68.078125 41.910156 68.203125 C 41.832031 68.230469 41.75 68.261719 41.671875 68.292969 C 41.589844 68.320312 41.507812 68.347656 41.425781 68.375 C 41.339844 68.398438 41.257812 68.425781 41.171875 68.453125 C 41.089844 68.476562 41.003906 68.496094 40.917969 68.519531 C 40.570312 68.609375 40.210938 68.679688 39.839844 68.71875 C 39.746094 68.730469 39.65625 68.738281 39.5625 68.746094 C 39.46875 68.75 39.375 68.757812 39.277344 68.761719 C 39.179688 68.765625 39.078125 68.765625 38.976562 68.765625 C 38.964844 68.765625 38.949219 68.765625 38.9375 68.765625 L 38.90625 68.765625 L 38.84375 68.761719 C 38.804688 68.761719 38.761719 68.761719 38.71875 68.757812 L 38.664062 68.757812 C 38.621094 68.757812 38.644531 68.753906 38.632812 68.753906 L 38.554688 68.75 C 38.503906 68.742188 38.449219 68.738281 38.398438 68.734375 C 38.292969 68.726562 38.183594 68.703125 38.078125 68.6875 C 37.972656 68.671875 37.867188 68.640625 37.765625 68.613281 C 37.660156 68.589844 37.558594 68.550781 37.457031 68.515625 C 37.050781 68.363281 36.675781 68.148438 36.351562 67.902344 C 36.027344 67.652344 35.746094 67.378906 35.492188 67.101562 C 34.980469 66.546875 34.566406 65.980469 34.125 65.503906 C 33.90625 65.261719 33.679688 65.042969 33.445312 64.863281 C 33.207031 64.683594 32.960938 64.539062 32.699219 64.441406 C 32.683594 64.4375 32.664062 64.429688 32.648438 64.425781 L 32.597656 64.410156 C 32.566406 64.398438 32.53125 64.390625 32.5 64.378906 C 32.484375 64.375 32.464844 64.367188 32.449219 64.363281 L 32.402344 64.355469 C 32.371094 64.347656 32.339844 64.339844 32.308594 64.335938 L 32.261719 64.324219 C 32.242188 64.320312 32.222656 64.320312 32.203125 64.316406 C 32.164062 64.3125 32.125 64.308594 32.085938 64.304688 L 32.023438 64.296875 L 32.003906 64.296875 C 32.007812 64.296875 31.980469 64.292969 32.011719 64.296875 L 31.984375 64.296875 C 31.953125 64.292969 31.917969 64.292969 31.882812 64.292969 C 31.605469 64.285156 31.332031 64.320312 31.066406 64.394531 C 30.804688 64.464844 30.554688 64.574219 30.324219 64.703125 C 30.09375 64.835938 29.875 64.984375 29.679688 65.140625 C 29.480469 65.300781 29.300781 65.46875 29.136719 65.632812 C 28.972656 65.804688 28.824219 65.972656 28.691406 66.136719 C 28.425781 66.464844 28.210938 66.769531 28.046875 67.027344 C 27.882812 67.289062 27.761719 67.5 27.6875 67.644531 C 27.609375 67.789062 27.570312 67.871094 27.570312 67.871094 " fill-opacity="1" fill-rule="nonzero"/></svg>