<?xml version="1.0" standalone="no"?>
<!DOCTYPE svg PUBLIC "-//W3C//DTD SVG 20010904//EN"
 "http://www.w3.org/TR/2001/REC-SVG-20010904/DTD/svg10.dtd">
<svg version="1.0" xmlns="http://www.w3.org/2000/svg"
 width="500.000000pt" height="500.000000pt" viewBox="0 0 500.000000 500.000000"
 preserveAspectRatio="xMidYMid meet">

<g transform="translate(0.000000,500.000000) scale(0.100000,-0.100000)"
fill="#000000" stroke="none">
<path d="M1748 3441 c-29 -26 -33 -35 -33 -80 0 -63 31 -100 91 -108 76 -10
134 73 104 148 -30 72 -106 90 -162 40z m113 -11 c23 -13 25 -52 4 -70 -13
-11 -13 -15 0 -33 19 -27 19 -37 0 -37 -9 0 -20 11 -25 25 -14 36 -40 33 -40
-5 0 -23 -4 -30 -20 -30 -18 0 -20 7 -20 80 l0 80 41 0 c22 0 49 -5 60 -10z"/>
<path d="M1800 3395 c0 -22 4 -26 23 -23 14 2 22 10 22 23 0 13 -8 21 -22 23
-19 3 -23 -1 -23 -23z"/>
<path d="M115 3388 c-66 -23 -108 -91 -88 -145 9 -25 107 -128 169 -180 59
-48 142 -75 247 -81 48 -2 87 -6 87 -9 0 -4 -11 -25 -84 -151 -20 -35 -36 -68
-36 -72 0 -4 -9 -25 -19 -47 -76 -148 -110 -312 -82 -386 6 -14 33 -47 62 -74
29 -26 67 -62 84 -80 16 -17 37 -32 45 -33 37 -5 39 0 18 36 -21 36 -21 38 -4
101 16 61 76 197 96 217 5 5 43 -27 92 -79 46 -48 93 -91 106 -96 32 -12 76 9
136 64 l49 46 31 -30 c66 -63 74 -69 96 -69 12 0 39 14 60 30 21 17 40 30 44
30 3 0 12 -13 21 -30 9 -16 22 -30 30 -30 7 0 23 -13 35 -30 12 -16 26 -30 31
-30 11 0 73 63 109 110 52 68 48 68 110 2 67 -73 91 -81 152 -52 86 40 258
206 258 248 0 34 -49 17 -109 -37 -50 -45 -51 -29 -2 24 74 80 45 114 -45 50
-27 -19 -53 -35 -57 -35 -5 0 11 23 34 50 23 28 39 53 36 56 -4 4 -9 -1 -13
-10 -10 -27 -223 -207 -256 -217 -59 -16 -103 9 -143 84 -9 15 -19 27 -23 27
-4 0 -50 -40 -101 -90 -74 -70 -97 -87 -108 -79 -18 15 -16 63 3 102 18 34
100 137 121 150 27 17 32 43 18 92 -8 26 -15 63 -15 80 0 27 -6 35 -32 48
l-31 15 -39 -46 c-46 -55 -106 -153 -123 -201 -8 -24 -13 -30 -17 -19 -4 8 2
34 13 58 10 23 19 48 19 55 0 7 7 16 16 19 9 4 14 9 11 13 -4 3 -1 13 5 21 10
11 8 17 -10 30 -21 17 -24 35 -9 60 5 7 3 12 -5 12 -10 0 -9 3 2 11 13 9 13
10 0 6 -8 -2 -15 -10 -15 -18 0 -8 -9 -13 -20 -11 -17 2 -16 0 5 -13 14 -9 18
-14 10 -12 -23 6 -68 -20 -75 -44 -4 -11 -9 -18 -12 -15 -3 3 -18 -12 -34 -34
-37 -51 -152 -166 -181 -181 -13 -6 -21 -9 -18 -6 3 3 58 60 123 127 129 134
129 134 58 169 -20 10 -43 16 -51 13 -13 -5 -13 -3 0 13 8 10 10 16 4 12 -7
-4 -15 0 -18 9 -4 11 13 42 52 92 53 68 64 78 108 89 77 19 210 33 327 33
l108 0 17 -30 c18 -32 38 -35 55 -9 15 24 0 61 -35 88 -18 13 -42 38 -53 54
-28 43 -45 46 -45 8 0 -31 -23 -53 -47 -44 -9 3 -10 10 -3 24 9 16 7 21 -15
29 -40 15 -220 12 -315 -6 -47 -8 -104 -18 -127 -21 -32 -4 -48 -13 -67 -37
-13 -17 -37 -45 -52 -62 -16 -17 -35 -39 -42 -50 -7 -10 -1 4 14 31 15 28 35
57 44 65 9 8 14 23 12 33 -2 9 2 17 8 17 7 0 9 7 5 18 -5 13 -4 14 6 5 10 -10
9 -16 -2 -30 -13 -16 -12 -17 4 -4 9 7 17 20 17 27 0 8 14 17 30 21 27 5 35
14 31 36 -1 4 11 5 26 2 26 -6 26 -5 8 6 -11 7 -24 18 -28 26 -4 7 -16 13 -25
13 -9 0 -26 7 -36 15 -10 8 -23 12 -27 9 -5 -3 -9 3 -9 13 0 15 -2 16 -10 3
-5 -8 -10 -12 -10 -8 0 3 -13 -5 -30 -20 -16 -14 -37 -27 -48 -28 -10 -2 -78
-15 -150 -29 -118 -23 -139 -24 -198 -14 -61 11 -71 10 -120 -11 -30 -12 -59
-20 -66 -17 -19 6 51 46 95 53 42 7 47 18 16 35 -30 16 -90 6 -149 -25 -40
-21 -50 -23 -50 -11 0 21 54 52 106 60 44 6 59 27 28 39 -24 9 -95 6 -129 -6z
m1007 -610 c-7 -7 -12 -8 -12 -2 0 14 12 26 19 19 2 -3 -1 -11 -7 -17z m138
-83 c0 -7 -7 -20 -15 -29 -9 -8 -15 -19 -15 -23 1 -4 -4 -9 -11 -12 -8 -2 -10
3 -6 15 7 18 6 18 -8 0 -8 -11 -15 -16 -15 -12 0 5 -20 -10 -45 -33 -24 -22
-50 -41 -57 -41 -6 0 26 36 73 79 81 76 99 86 99 56z m-50 -85 c0 -5 -2 -10
-4 -10 -3 0 -8 5 -11 10 -3 6 -1 10 4 10 6 0 11 -4 11 -10z m-22 -25 c-3 -3
-9 2 -12 12 -6 14 -5 15 5 6 7 -7 10 -15 7 -18z m-191 -136 c11 0 13 -3 5 -6
-17 -7 -42 15 -41 36 0 11 3 9 9 -6 5 -13 17 -23 27 -24z"/>
<path d="M1943 3353 c-3 -84 -53 -126 -142 -120 -48 3 -51 3 -30 -9 82 -45
189 23 189 120 0 51 -16 59 -17 9z"/>
<path d="M4044 3055 c-12 -18 -14 -31 -7 -52 8 -24 16 -28 52 -31 52 -4 71 10
71 52 0 42 -16 56 -62 56 -29 0 -41 -6 -54 -25z"/>
<path d="M3840 2939 l0 -121 -34 30 c-63 55 -151 66 -226 27 -162 -84 -160
-362 3 -443 85 -43 183 -23 244 47 l22 26 1 -43 0 -43 48 3 47 3 3 318 2 317
-55 0 -55 0 0 -121z m-75 -153 c40 -17 75 -78 75 -131 0 -92 -90 -170 -168
-147 -104 32 -143 161 -74 244 41 49 101 61 167 34z"/>
<path d="M2194 3026 c-61 -28 -95 -72 -102 -132 -6 -54 11 -95 52 -132 31 -27
137 -67 207 -77 56 -8 103 -45 107 -82 7 -71 -45 -107 -144 -101 -53 3 -68 9
-94 33 -16 16 -32 37 -36 47 -4 14 -16 18 -55 18 -47 0 -49 -1 -49 -28 0 -50
47 -108 113 -137 52 -24 68 -26 145 -23 154 7 223 59 230 173 3 50 0 66 -20
95 -31 45 -113 89 -187 100 -85 12 -149 42 -157 75 -10 39 11 74 53 92 68 28
166 -1 179 -53 6 -22 12 -24 61 -24 l56 0 -6 35 c-15 89 -101 145 -227 145
-58 0 -87 -6 -126 -24z"/>
<path d="M2680 2956 l0 -64 -51 -7 -50 -7 3 -42 3 -41 48 -3 47 -3 1 -127 c0
-71 5 -143 12 -162 17 -49 80 -80 164 -80 l63 0 0 45 0 45 -50 0 c-38 0 -54 5
-70 22 -18 19 -20 35 -20 139 l0 118 68 3 67 3 0 45 0 45 -67 3 -68 3 0 64 0
65 -50 0 -50 0 0 -64z"/>
<path d="M1430 2860 l0 -81 49 43 c49 41 50 42 30 58 -12 8 -34 26 -50 38
l-29 24 0 -82z"/>
<path d="M4378 2886 c-52 -20 -93 -53 -125 -99 -26 -37 -28 -48 -28 -131 0
-89 1 -93 36 -141 72 -102 201 -135 308 -80 96 48 135 120 129 236 -3 67 -7
83 -34 121 -47 64 -109 99 -186 104 -39 2 -77 -2 -100 -10z m139 -96 c67 -24
103 -130 69 -201 -35 -74 -135 -106 -194 -62 -51 38 -74 83 -69 135 10 107 94
162 194 128z"/>
<path d="M2977 2884 c-4 -4 -7 -79 -7 -168 0 -142 2 -164 21 -203 32 -67 86
-97 179 -101 64 -3 81 0 120 21 25 13 58 43 75 66 29 42 30 42 33 212 5 189
12 169 -65 172 l-28 1 -5 -149 c-3 -93 -10 -159 -18 -173 -19 -34 -58 -55
-103 -55 -32 0 -47 7 -72 32 l-32 31 -5 158 -5 157 -40 3 c-23 2 -44 0 -48 -4z"/>
<path d="M4040 2650 l0 -230 55 0 55 0 0 230 0 230 -55 0 -55 0 0 -230z"/>
<path d="M1777 2849 c-32 -11 -76 -31 -98 -44 -21 -14 -41 -25 -45 -25 -3 0
-34 -23 -68 -52 -33 -28 -65 -55 -70 -59 -14 -12 2 -55 34 -89 l30 -32 43 25
c24 14 81 51 126 81 83 57 101 64 101 46 0 -6 11 -3 25 6 15 10 40 15 67 12
68 -5 63 24 -16 95 -36 31 -66 57 -68 57 -2 -1 -29 -10 -61 -21z"/>
</g>
</svg>
